<svg xmlns="http://www.w3.org/2000/svg" contentStyleType="text/css"
     data-diagram-type="GANTT" height="249px" preserveAspectRatio="none"
     style="width:562px;height:249px;background:#FFFFFF;" version="1.1" viewBox="0 0 562 249" width="562px"
     zoomAndPan="magnify">
    <defs/>
    <g>
        <text fill="#000000" font-family="sans-serif" font-size="10" lengthAdjust="spacing" textLength="5.5615" x="5"
              y="26.791">7
        </text>
        <text fill="#000000" font-family="sans-serif" font-size="10" lengthAdjust="spacing" textLength="5.5615" x="33"
              y="26.791">8
        </text>
        <text fill="#000000" font-family="sans-serif" font-size="10" lengthAdjust="spacing" textLength="5.5615" x="61"
              y="26.791">9
        </text>
        <text fill="#000000" font-family="sans-serif" font-size="10" lengthAdjust="spacing" textLength="11.123" x="89"
              y="26.791">10
        </text>
        <text fill="#000000" font-family="sans-serif" font-size="10" lengthAdjust="spacing" textLength="11.123" x="117"
              y="26.791">11
        </text>
        <text fill="#000000" font-family="sans-serif" font-size="10" lengthAdjust="spacing" textLength="11.123" x="145"
              y="26.791">12
        </text>
        <text fill="#000000" font-family="sans-serif" font-size="10" lengthAdjust="spacing" textLength="11.123" x="173"
              y="26.791">13
        </text>
        <text fill="#000000" font-family="sans-serif" font-size="10" lengthAdjust="spacing" textLength="11.123" x="201"
              y="26.791">14
        </text>
        <text fill="#000000" font-family="sans-serif" font-size="10" lengthAdjust="spacing" textLength="11.123" x="229"
              y="26.791">15
        </text>
        <text fill="#000000" font-family="sans-serif" font-size="10" lengthAdjust="spacing" textLength="11.123" x="257"
              y="26.791">16
        </text>
        <text fill="#000000" font-family="sans-serif" font-size="10" lengthAdjust="spacing" textLength="11.123" x="285"
              y="26.791">17
        </text>
        <text fill="#000000" font-family="sans-serif" font-size="10" lengthAdjust="spacing" textLength="11.123" x="313"
              y="26.791">18
        </text>
        <text fill="#000000" font-family="sans-serif" font-size="10" lengthAdjust="spacing" textLength="11.123" x="341"
              y="26.791">19
        </text>
        <text fill="#000000" font-family="sans-serif" font-size="10" lengthAdjust="spacing" textLength="11.123" x="369"
              y="26.791">20
        </text>
        <text fill="#000000" font-family="sans-serif" font-size="10" lengthAdjust="spacing" textLength="11.123" x="397"
              y="26.791">21
        </text>
        <text fill="#000000" font-family="sans-serif" font-size="10" lengthAdjust="spacing" textLength="11.123" x="425"
              y="26.791">22
        </text>
        <text fill="#000000" font-family="sans-serif" font-size="10" lengthAdjust="spacing" textLength="11.123" x="453"
              y="26.791">23
        </text>
        <text fill="#000000" font-family="sans-serif" font-size="10" lengthAdjust="spacing" textLength="11.123" x="481"
              y="26.791">24
        </text>
        <text fill="#000000" font-family="sans-serif" font-size="10" lengthAdjust="spacing" textLength="11.123" x="509"
              y="26.791">25
        </text>
        <text fill="#000000" font-family="sans-serif" font-size="10" lengthAdjust="spacing" textLength="11.123" x="537"
              y="26.791">26
        </text>
        <line style="stroke:#C0C0C0;stroke-width:1;" x1="0" x2="0" y1="16" y2="231.9395"/>
        <line style="stroke:#C0C0C0;stroke-width:1;" x1="28" x2="28" y1="16" y2="231.9395"/>
        <line style="stroke:#C0C0C0;stroke-width:1;" x1="56" x2="56" y1="16" y2="231.9395"/>
        <line style="stroke:#C0C0C0;stroke-width:1;" x1="84" x2="84" y1="16" y2="231.9395"/>
        <line style="stroke:#C0C0C0;stroke-width:1;" x1="112" x2="112" y1="16" y2="231.9395"/>
        <line style="stroke:#C0C0C0;stroke-width:1;" x1="140" x2="140" y1="16" y2="231.9395"/>
        <line style="stroke:#C0C0C0;stroke-width:1;" x1="168" x2="168" y1="16" y2="231.9395"/>
        <line style="stroke:#C0C0C0;stroke-width:1;" x1="196" x2="196" y1="16" y2="231.9395"/>
        <line style="stroke:#C0C0C0;stroke-width:1;" x1="224" x2="224" y1="16" y2="231.9395"/>
        <line style="stroke:#C0C0C0;stroke-width:1;" x1="252" x2="252" y1="16" y2="231.9395"/>
        <line style="stroke:#C0C0C0;stroke-width:1;" x1="280" x2="280" y1="16" y2="231.9395"/>
        <line style="stroke:#C0C0C0;stroke-width:1;" x1="308" x2="308" y1="16" y2="231.9395"/>
        <line style="stroke:#C0C0C0;stroke-width:1;" x1="336" x2="336" y1="16" y2="231.9395"/>
        <line style="stroke:#C0C0C0;stroke-width:1;" x1="364" x2="364" y1="16" y2="231.9395"/>
        <line style="stroke:#C0C0C0;stroke-width:1;" x1="392" x2="392" y1="16" y2="231.9395"/>
        <line style="stroke:#C0C0C0;stroke-width:1;" x1="420" x2="420" y1="16" y2="231.9395"/>
        <line style="stroke:#C0C0C0;stroke-width:1;" x1="448" x2="448" y1="16" y2="231.9395"/>
        <line style="stroke:#C0C0C0;stroke-width:1;" x1="476" x2="476" y1="16" y2="231.9395"/>
        <line style="stroke:#C0C0C0;stroke-width:1;" x1="504" x2="504" y1="16" y2="231.9395"/>
        <line style="stroke:#C0C0C0;stroke-width:1;" x1="532" x2="532" y1="16" y2="231.9395"/>
        <line style="stroke:#C0C0C0;stroke-width:1;" x1="560" x2="560" y1="16" y2="231.9395"/>
        <line style="stroke:#C0C0C0;stroke-width:1;" x1="0" x2="0" y1="0" y2="16"/>
        <line style="stroke:#C0C0C0;stroke-width:1;" x1="80" x2="80" y1="0" y2="16"/>
        <text fill="#000000" font-family="sans-serif" font-size="12" font-weight="bold" lengthAdjust="spacing"
              textLength="51.3633" x="14.3184" y="12.9492">Feb 2026
        </text>
        <line style="stroke:#C0C0C0;stroke-width:1;" x1="204" x2="204" y1="0" y2="16"/>
        <text fill="#000000" font-family="sans-serif" font-size="12" font-weight="bold" lengthAdjust="spacing"
              textLength="51.3691" x="116.3154" y="12.9492">Mar 2026
        </text>
        <line style="stroke:#C0C0C0;stroke-width:1;" x1="324" x2="324" y1="0" y2="16"/>
        <text fill="#000000" font-family="sans-serif" font-size="12" font-weight="bold" lengthAdjust="spacing"
              textLength="50.6953" x="238.6523" y="12.9492">Apr 2026
        </text>
        <line style="stroke:#C0C0C0;stroke-width:1;" x1="448" x2="448" y1="0" y2="16"/>
        <text fill="#000000" font-family="sans-serif" font-size="12" font-weight="bold" lengthAdjust="spacing"
              textLength="53.373" x="359.3135" y="12.9492">May 2026
        </text>
        <line style="stroke:#C0C0C0;stroke-width:1;" x1="560" x2="560" y1="0" y2="16"/>
        <text fill="#000000" font-family="sans-serif" font-size="12" font-weight="bold" lengthAdjust="spacing"
              textLength="51.3633" x="478.3184" y="12.9492">Jun 2026
        </text>
        <line style="stroke:#C0C0C0;stroke-width:1;" x1="0" x2="560" y1="0" y2="0"/>
        <line style="stroke:#C0C0C0;stroke-width:1;" x1="0" x2="560" y1="16" y2="16"/>
        <line style="stroke:#C0C0C0;stroke-width:1;" x1="0" x2="560" y1="27" y2="27"/>
        <path d="M48,43.6309 L48,54.9463 L53,54.9463" fill="none" style="stroke:#181818;stroke-width:1.5;"/>
        <polygon fill="#181818" points="52,50.9463,56,54.9463,52,58.9463,52,50.9463"
                 style="stroke:#181818;stroke-width:1;"/>
        <path d="M104,62.2617 L104,73.5771 L109,73.5771" fill="none" style="stroke:#181818;stroke-width:1.5;"/>
        <polygon fill="#181818" points="108,69.5771,112,73.5771,108,77.5771,108,69.5771"
                 style="stroke:#181818;stroke-width:1;"/>
        <path d="M160,80.8926 L160,92.208 L165,92.208" fill="none" style="stroke:#181818;stroke-width:1.5;"/>
        <polygon fill="#181818" points="164,88.208,168,92.208,164,96.208,164,88.208"
                 style="stroke:#181818;stroke-width:1;"/>
        <path d="M216,99.5234 L216,110.8389 L221,110.8389" fill="none" style="stroke:#181818;stroke-width:1.5;"/>
        <polygon fill="#181818" points="220,106.8389,224,110.8389,220,114.8389,220,106.8389"
                 style="stroke:#181818;stroke-width:1;"/>
        <path d="M272,118.1543 L272,129.4697 L277,129.4697" fill="none" style="stroke:#181818;stroke-width:1.5;"/>
        <polygon fill="#181818" points="276,125.4697,280,129.4697,276,133.4697,276,125.4697"
                 style="stroke:#181818;stroke-width:1;"/>
        <path d="M328,136.7852 L328,148.1006 L333,148.1006" fill="none" style="stroke:#181818;stroke-width:1.5;"/>
        <polygon fill="#181818" points="332,144.1006,336,148.1006,332,152.1006,332,144.1006"
                 style="stroke:#181818;stroke-width:1;"/>
        <path d="M384,155.416 L384,166.7314 L389,166.7314" fill="none" style="stroke:#181818;stroke-width:1.5;"/>
        <polygon fill="#181818" points="388,162.7314,392,166.7314,388,170.7314,388,162.7314"
                 style="stroke:#181818;stroke-width:1;"/>
        <path d="M440,174.0469 L440,185.3623 L445,185.3623" fill="none" style="stroke:#181818;stroke-width:1.5;"/>
        <polygon fill="#181818" points="444,181.3623,448,185.3623,444,189.3623,444,181.3623"
                 style="stroke:#181818;stroke-width:1;"/>
        <path d="M440,174.0469 L440,203.9932 L445,203.9932" fill="none" style="stroke:#181818;stroke-width:1.5;"/>
        <polygon fill="#181818" points="444,199.9932,448,203.9932,444,207.9932,444,199.9932"
                 style="stroke:#181818;stroke-width:1;"/>
        <path d="M496,192.6777 L496,222.624 L501,222.624" fill="none" style="stroke:#181818;stroke-width:1.5;"/>
        <polygon fill="#181818" points="500,218.624,504,222.624,500,226.624,500,218.624"
                 style="stroke:#181818;stroke-width:1;"/>
        <rect fill="#E6E6FA" height="14.6309" style="stroke:none;stroke-width:1;" width="52" x="2" y="29"/>
        <rect fill="none" height="14.6309" style="stroke:#ADD8E6;stroke-width:1;" width="52" x="2" y="29"/>
        <rect fill="#E6E6FA" height="14.6309" style="stroke:none;stroke-width:1;" width="52" x="58" y="47.6309"/>
        <rect fill="none" height="14.6309" style="stroke:#ADD8E6;stroke-width:1;" width="52" x="58" y="47.6309"/>
        <rect fill="#FFB6C1" height="14.6309" style="stroke:none;stroke-width:1;" width="52" x="114" y="66.2617"/>
        <rect fill="none" height="14.6309" style="stroke:#F08080;stroke-width:1;" width="52" x="114" y="66.2617"/>
        <rect fill="#FFB6C1" height="14.6309" style="stroke:none;stroke-width:1;" width="52" x="170" y="84.8926"/>
        <rect fill="none" height="14.6309" style="stroke:#F08080;stroke-width:1;" width="52" x="170" y="84.8926"/>
        <rect fill="#90EE90" height="14.6309" style="stroke:none;stroke-width:1;" width="52" x="226" y="103.5234"/>
        <rect fill="none" height="14.6309" style="stroke:#FFFFE0;stroke-width:1;" width="52" x="226" y="103.5234"/>
        <rect fill="#90EE90" height="14.6309" style="stroke:none;stroke-width:1;" width="52" x="282" y="122.1543"/>
        <rect fill="none" height="14.6309" style="stroke:#FFFFE0;stroke-width:1;" width="52" x="282" y="122.1543"/>
        <rect fill="#87CEFA" height="14.6309" style="stroke:none;stroke-width:1;" width="52" x="338" y="140.7852"/>
        <rect fill="none" height="14.6309" style="stroke:#B0C4DE;stroke-width:1;" width="52" x="338" y="140.7852"/>
        <rect fill="#87CEFA" height="14.6309" style="stroke:none;stroke-width:1;" width="52" x="394" y="159.416"/>
        <rect fill="none" height="14.6309" style="stroke:#B0C4DE;stroke-width:1;" width="52" x="394" y="159.416"/>
        <rect fill="#87CEFA" height="14.6309" style="stroke:none;stroke-width:1;" width="52" x="450" y="178.0469"/>
        <rect fill="none" height="14.6309" style="stroke:#B0C4DE;stroke-width:1;" width="52" x="450" y="178.0469"/>
        <rect fill="#FFFF00" height="14.6309" style="stroke:none;stroke-width:1;" width="52" x="450" y="196.6777"/>
        <rect fill="none" height="14.6309" style="stroke:#FFFFE0;stroke-width:1;" width="52" x="450" y="196.6777"/>
        <rect fill="#D3D3D3" height="14.6309" style="stroke:none;stroke-width:1;" width="52" x="506" y="215.3086"/>
        <rect fill="none" height="14.6309" style="stroke:#778899;stroke-width:1;" width="52" x="506" y="215.3086"/>
        <text fill="#000000" font-family="sans-serif" font-size="11" lengthAdjust="spacing" textLength="15.2808" x="6"
              y="40.8701">M1
        </text>
        <text fill="#000000" font-family="sans-serif" font-size="11" lengthAdjust="spacing" textLength="36.6738" x="62"
              y="59.501">M1 rev.
        </text>
        <text fill="#000000" font-family="sans-serif" font-size="11" lengthAdjust="spacing" textLength="15.2808" x="118"
              y="78.1318">M2
        </text>
        <text fill="#000000" font-family="sans-serif" font-size="11" lengthAdjust="spacing" textLength="36.6738" x="174"
              y="96.7627">M2 rev.
        </text>
        <text fill="#000000" font-family="sans-serif" font-size="11" lengthAdjust="spacing" textLength="15.2808" x="230"
              y="115.3936">M3
        </text>
        <text fill="#000000" font-family="sans-serif" font-size="11" lengthAdjust="spacing" textLength="36.6738" x="286"
              y="134.0244">M3 rev.
        </text>
        <text fill="#000000" font-family="sans-serif" font-size="11" lengthAdjust="spacing" textLength="15.2808" x="342"
              y="152.6553">M4
        </text>
        <text fill="#000000" font-family="sans-serif" font-size="11" lengthAdjust="spacing" textLength="36.6738" x="398"
              y="171.2861">M4 rev.
        </text>
        <text fill="#000000" font-family="sans-serif" font-size="11" lengthAdjust="spacing" textLength="42.1899" x="454"
              y="189.917">M4 depl.
        </text>
        <text fill="#000000" font-family="sans-serif" font-size="11" lengthAdjust="spacing" textLength="40.9653" x="454"
              y="208.5479">Present.
        </text>
        <text fill="#000000" font-family="sans-serif" font-size="11" lengthAdjust="spacing" textLength="39.73" x="510"
              y="227.1787">Fin. rev.
        </text>
        <line style="stroke:#C0C0C0;stroke-width:1;" x1="0" x2="560" y1="231.9395" y2="231.9395"/>
        <line style="stroke:#C0C0C0;stroke-width:1;" x1="0" x2="0" y1="231.9395" y2="247.9395"/>
        <line style="stroke:#C0C0C0;stroke-width:1;" x1="80" x2="80" y1="231.9395" y2="247.9395"/>
        <text fill="#000000" font-family="sans-serif" font-size="12" font-weight="bold" lengthAdjust="spacing"
              textLength="51.3633" x="14.3184" y="244.8887">Feb 2026
        </text>
        <line style="stroke:#C0C0C0;stroke-width:1;" x1="204" x2="204" y1="231.9395" y2="247.9395"/>
        <text fill="#000000" font-family="sans-serif" font-size="12" font-weight="bold" lengthAdjust="spacing"
              textLength="51.3691" x="116.3154" y="244.8887">Mar 2026
        </text>
        <line style="stroke:#C0C0C0;stroke-width:1;" x1="324" x2="324" y1="231.9395" y2="247.9395"/>
        <text fill="#000000" font-family="sans-serif" font-size="12" font-weight="bold" lengthAdjust="spacing"
              textLength="50.6953" x="238.6523" y="244.8887">Apr 2026
        </text>
        <line style="stroke:#C0C0C0;stroke-width:1;" x1="448" x2="448" y1="231.9395" y2="247.9395"/>
        <text fill="#000000" font-family="sans-serif" font-size="12" font-weight="bold" lengthAdjust="spacing"
              textLength="53.373" x="359.3135" y="244.8887">May 2026
        </text>
        <line style="stroke:#C0C0C0;stroke-width:1;" x1="560" x2="560" y1="231.9395" y2="247.9395"/>
        <text fill="#000000" font-family="sans-serif" font-size="12" font-weight="bold" lengthAdjust="spacing"
              textLength="51.3633" x="478.3184" y="244.8887">Jun 2026
        </text>
        <line style="stroke:#C0C0C0;stroke-width:1;" x1="0" x2="560" y1="247.9395"
              y2="247.9395"/><!--SRC=[xPPDRzim38Rl-XMyjJtOIHodQ7qAadvWMOm5SrfW67RGRCxL8bE19Bl8lvyKUrWBRB3NNdFJ1_dm5GcyqDnOhct9oLfszcJjtYIZqLwwVLt9C5VLw7WN58ANcbUCRRJwYRc5Ovw1Q1nT1kCe65-pOw39kKHuHjp90sDVqyataDpumEEX0Ku520EvaagZMnAiUODKe1wjHVba5x96dmSQc_1loLrXRi7JpmouvA7Kg1VOblqtrSCsWdOjTgaqbvuxI6tqtznfBtA8tdkDI2tu2qgfdZrvaEBf6yXnBtI8vcnty3DhsPb5bDq8uq72uxVZ2zpBVlvxth3HQ93ikukqBN_T_Zj1uR0ETG_j6p0_TFebj-YtRExYMyDWynVkSNA6apESdE7a39qP-2_4Gxg61hKHYc0IEaEOXV5vvegiQeBe2YRJP7oTH3DOtcPRRnYp2tQUVjY2KRNE4GfXh1RVQ-i05sp56mwVQxAYmWG-xP5MDnz_7y0jDK8hgbpxsEen_HDm6GSBOI53xQJ0Oyfky0UlfNKPkIe4bGayRE-2AxRcLDQyT6majbIEgmy9t2z-0G00]-->
    </g>
</svg>